<?xml version="1.0" standalone="yes"?>

<svg version="1.1" viewBox="0.0 0.0 256.0 256.0" fill="none" stroke="none" stroke-linecap="square" stroke-miterlimit="10" xmlns="http://www.w3.org/2000/svg" xmlns:xlink="http://www.w3.org/1999/xlink"><clipPath id="p.0"><path d="m0 0l256.0 0l0 256.0l-256.0 0l0 -256.0z" clip-rule="nonzero"></path></clipPath><g clip-path="url(#p.0)"><path fill="#000000" fill-opacity="0.0" d="m0 0l256.0 0l0 256.0l-256.0 0z" fill-rule="nonzero"></path><path fill="#cc1554" d="m23.892612 98.03579l105.60608 -79.68933l105.60608 79.68933l-40.337936 128.94006l-130.53629 0z" fill-rule="nonzero"></path><path stroke="#cc1554" stroke-width="2.0" stroke-linejoin="round" stroke-linecap="butt" d="m23.892612 98.03579l105.60608 -79.68933l105.60608 79.68933l-40.337936 128.94006l-130.53629 0z" fill-rule="nonzero"></path><path fill="#000000" fill-opacity="0.0" d="m75.84252 77.76378l104.314964 0l0 52.472443l-104.314964 0z" fill-rule="nonzero"></path><path fill="#ffffff" d="m94.7019 117.405655q-0.625 -1.125 -0.9375 -2.40625q-0.3125 -1.296875 -0.53125 -2.65625q-0.203125 -1.375 -0.328125 -2.546875q-0.125 -1.1875 -0.25 -1.90625l0 -5.4375q0 -0.609375 0.46875 -1.09375q0.46875 -0.5 1.09375 -0.5q0.0625 0 0.15625 0q0.09375 0 0.6875 0q0.21875 1.421875 0.28125 2.328125q0.0625 0.90625 0.109375 1.765625q0.046875 0.859375 0.1875 1.703125q0.125 0.828125 0.265625 1.25q0.109375 0.03125 0.625 0.078125q0.5625 0 1.3125 0.0625q0.6875 0 1.546875 -0.234375q0.875 -0.234375 1.59375 -0.6875q0.71875 -0.453125 1.15625 -1.046875q0.453125 -0.59375 0.453125 -1.28125q0 -0.75 -0.546875 -1.375q-0.53125 -0.640625 -1.484375 -1.1875q-0.953125 -0.5625 -2.15625 -0.984375q-1.203125 -0.421875 -2.375 -0.671875q-1.171875 -0.265625 -2.171875 -0.375q-1.0 -0.125 -1.515625 -0.125q-0.203125 0 -0.703125 -0.03125q-0.5 -0.03125 -1.078125 -0.015625q-0.578125 0.015625 -1.0625 0.078125q-0.46875 0.046875 -0.671875 0.15625q-0.125 0.078125 -0.3125 0.40625q-0.1875 0.3125 -0.421875 0.75q-0.21875 0.4375 -0.578125 0.90625q-0.34375 0.46875 -0.953125 0.46875l-0.0625 0q-0.1875 0 -0.390625 -0.09375q-0.25 -0.140625 -0.359375 -0.34375q-0.09375 -0.203125 -0.15625 -0.515625q-0.0625 -0.3125 -0.09375 -0.8125q-0.03125 -0.5 -0.03125 -1.328125q0 -0.640625 0.46875 -1.0625q0.484375 -0.4375 1.109375 -0.6875q0.625 -0.25 1.28125 -0.421875q0.65625 -0.1875 1.25 -0.296875q0.59375 -0.109375 1.078125 -0.171875q0.484375 -0.078125 0.6875 -0.078125q1.09375 0 2.546875 0.125q1.453125 0.125 3.015625 0.46875q1.5625 0.34375 3.09375 0.921875q1.546875 0.5625 2.796875 1.421875q1.25 0.84375 2.0625 2.078125q0.828125 1.25 0.828125 2.90625q0.1875 1.25 -0.4375 2.296875q-0.625 1.046875 -1.640625 1.8125q-1.0 0.75 -2.21875 1.296875q-1.203125 0.546875 -2.359375 0.859375q-1.140625 0.296875 -2.125 0.390625q-0.984375 0.078125 -0.5625 0.296875l0 -0.75q0 1.03125 0.1875 2.09375q0.1875 1.0625 0.1875 2.21875q0 0.15625 -0.046875 0.5q-0.03125 0.328125 -0.1875 0.6875q-0.15625 0.359375 -0.5 0.671875q-0.34375 0.3125 -1.28125 0.125z" fill-rule="nonzero"></path><path fill="#ffffff" d="m111.53002 112.811905q-0.109375 -0.65625 0.140625 0.34375q0.25 0.984375 0.390625 1.765625q0.140625 0.78125 0.09375 1.3125q-0.125 0.84375 -0.671875 0.953125q-0.40625 1.15625 -0.859375 0.1875q-0.4375 -0.984375 -0.65625 -1.703125q-0.21875 -0.734375 -0.453125 -1.71875q-0.234375 -0.984375 -0.46875 -2.09375q-0.21875 -1.109375 -0.421875 -2.265625q-0.1875 -1.171875 -0.3125 -2.25q-0.109375 -1.078125 -0.109375 -2.0q0 -0.9375 0.234375 -1.765625q0.734375 -0.546875 1.21875 -0.3125q0.484375 0.21875 0.671875 0.609375q0.203125 0.390625 0.296875 0.859375q0 0.453125 -0.046875 0.65625q0 -0.015625 0.0625 0.28125q0.0625 0.296875 0.140625 0.625q0.09375 0.328125 0.15625 0.59375q0.078125 0.265625 -0.078125 -0.046875q0 0 0.703125 -0.09375q0.703125 -0.09375 1.53125 -0.25q0.828125 -0.171875 1.6875 -0.390625q0.859375 -0.234375 1.515625 -0.515625q0.65625 -0.296875 0.984375 -0.609375q0.34375 -0.3125 0.34375 -0.59375q0 0.046875 -0.03125 -0.03125l0 0.015625q-0.546875 -0.640625 -1.25 -1.109375q-0.703125 -0.484375 -1.5 -0.71875q-0.78125 -0.234375 -1.6875 -0.296875q-0.90625 -0.078125 -1.96875 -0.078125q-0.796875 0 -1.625 0.015625q-0.828125 0 -1.4375 0.1875q-0.609375 0.171875 -0.96875 0.59375q-0.359375 0.40625 -0.359375 1.8125q-0.984375 0 -1.28125 -0.25q-0.296875 -0.265625 -0.46875 -0.546875q-0.171875 -0.296875 -0.265625 -0.609375q-0.109375 -0.328125 -0.109375 -0.59375q0 -0.5 0.203125 -0.921875q0.203125 -0.4375 0.515625 -0.75q0.328125 -0.3125 0.671875 -0.546875q0.359375 -0.25 0.765625 -0.46875q0.9375 -0.171875 1.59375 -0.28125q0.65625 -0.109375 1.25 -0.171875q0.609375 -0.078125 1.21875 -0.078125q0.609375 -0.015625 1.34375 -0.015625q0.765625 0 1.625 0.125q0.859375 0.125 1.75 0.375q0.890625 0.234375 1.6875 0.65625q0.8125 0.40625 1.46875 1.0q0.671875 0.59375 1.0625 1.40625q0.390625 0.8125 0.390625 1.796875q0 0.953125 -0.578125 1.671875q-0.5625 0.703125 -1.4375 1.15625q-0.859375 0.453125 -1.859375 0.765625q-0.984375 0.296875 -1.96875 0.515625q-0.96875 0.21875 -1.796875 0.390625q-0.828125 0.203125 -0.609375 0.140625q0.84375 1.15625 2.109375 2.40625q1.265625 1.234375 2.375 2.078125q1.109375 0.84375 2.015625 1.375q0.90625 0.53125 1.53125 0.9375q0.625 0.40625 0.84375 0.6875q0.5 0.703125 -0.3125 1.203125q-0.453125 0.59375 -1.328125 0.34375q-0.859375 -0.25 -1.765625 -0.828125q-0.90625 -0.5625 -1.90625 -1.375q-1.0 -0.828125 -1.953125 -1.703125q-0.953125 -0.875 -1.828125 -1.71875q-0.859375 -0.859375 -0.21875 -0.140625zm11.874176 -10.328125q-0.21875 0 0.90625 0.453125q-0.421875 -0.890625 -0.421875 -0.65625l0 4.609375q-0.109375 -0.171875 0.359375 -0.1875q0.46875 -0.015625 1.3125 -0.09375q0.84375 -0.078125 1.8125 -0.234375q0.9687424 -0.171875 1.8124924 -0.3125q0.84375 -0.15625 1.390625 -0.25q0.875 -0.171875 0.96875 -0.078125q-0.171875 0 0.046875 0q0.21875 -0.015625 0.46875 -0.03125q0.265625 -0.015625 0.484375 -0.03125q0.21875 -0.015625 0.859375 -0.015625q0 1.515625 -0.875 2.0q-0.875 0.484375 -1.984375 0.71875q-1.109375 0.21875 -2.359375 0.34375q-1.2343674 0.109375 -2.2968674 0.203125q-1.0625 0.078125 -1.796875 0.171875q-0.390625 0.03125 -0.34375 -0.125q-0.15625 0.390625 -0.21875 0.890625q-0.0625 0.484375 -0.078125 1.0q0 0.515625 0 1.0625q0.015625 0.53125 0.015625 0.953125q0 0.109375 0 0.375q0 0.265625 0 0.546875q0 0.265625 0 0.515625q0 0.25 0 0.21875q-0.03125 -0.046875 0.1875 0.03125q0.234375 0.078125 0.59375 0.109375q0.359375 0.03125 0.703125 0q0.4375 -0.015625 0.609375 -0.015625q0.859375 0 1.734375 -0.09375q0.8906174 -0.09375 1.7656174 -0.1875q0.890625 -0.09375 1.78125 -0.1875q0.90625 -0.09375 1.84375 -0.09375l0.328125 0q0.09375 0.0625 0.171875 0.09375q0.09375 0.015625 0.25 0.09375q0.15625 0.0625 0.265625 0.125q-0.03125 -0.015625 -0.03125 -0.015625q0.203125 0.078125 0.359375 0.1875q0.359375 0.203125 0.359375 0.5625q0 0.8125 -0.734375 1.234375q-0.71875 0.421875 -1.625 0.65625q-0.890625 0.21875 -1.921875 0.3125q-1.03125 0.09375 -1.96875 0.140625q-0.9218674 0.03125 -1.5937424 0.03125q-0.671875 0 -0.859375 0q-1.109375 0 -2.015625 -0.203125q-0.890625 -0.21875 -1.53125 -0.734375q-0.640625 -0.53125 -0.96875 -1.421875q-0.296875 -0.875 -0.296875 -2.0625q0 -1.0625 0.140625 -2.0625q0.15625 -1.0 0.15625 -1.984375q0 -0.296875 -0.140625 -0.578125q-0.125 -0.296875 -0.125 -0.765625l0 -0.390625q0.171875 -0.15625 0.296875 -0.328125q0.125 -0.1875 0.0625 -0.125l0 -5.640625q0 -0.53125 0.171875 -0.921875q0.171875 -0.390625 0.703125 -0.5q0.53125 -0.125 1.203125 -0.09375q0.671875 0.015625 1.796875 0.078125q1.125 0.046875 2.765625 0.078125q1.6718674 0.03125 4.0937424 0q0.375 0.15625 0.671875 0.296875q0.296875 0.125 0.59375 0.359375q0.296875 0.234375 0.484375 0.59375q0.1875 0.34375 0.1875 0.828125q0 0.296875 -0.296875 0.609375q-0.28125 0.3125 -0.671875 0.171875l-1.171875 -0.46875l-8.390617 0.234375zm11.478905 9.828125q0 -0.421875 0.125 -0.796875q0.140625 -0.375 0.359375 -0.734375q0.234375 -0.359375 0.609375 -0.609375q0.390625 -0.265625 1.390625 -0.265625q0 2.109375 0.515625 2.96875q0.53125 0.84375 1.484375 1.328125q0.96875 0.46875 2.25 0.625q1.34375 0.1875 2.875 0.265625q0.515625 -0.015625 1.34375 -0.03125q0.84375 -0.015625 1.546875 -0.171875q0.703125 -0.15625 1.09375 -0.4375q0.390625 -0.28125 0.375 -0.796875q0 -0.375 -0.015625 -0.609375q-0.015625 -0.234375 -0.078125 -0.34375q-0.046875 -0.125 -0.21875 -0.28125q-0.15625 -0.15625 -0.484375 -0.328125l-7.828125 -4.265625q-0.46875 -0.28125 -0.921875 -0.6875q-0.453125 -0.40625 -0.765625 -0.890625q-0.296875 -0.5 -0.484375 -1.0625q-0.171875 -0.5625 -0.171875 -1.125q0 -1.203125 0.640625 -1.953125q0.640625 -0.765625 1.53125 -1.171875q0.90625 -0.421875 1.890625 -0.59375q1.0 -0.171875 1.84375 -0.171875q0.390625 0 1.0 0.078125q0.609375 0.0625 1.296875 0.203125q0.6875 0.125 1.375 0.359375q0.703125 0.234375 1.265625 0.625q0.578125 0.375 0.984375 0.90625q0.421875 0.53125 0.421875 1.609375q-0.828125 0.484375 -1.359375 0.375q-0.515625 -0.109375 -0.953125 -0.34375q-0.4375 -0.234375 -0.859375 -0.5q-0.421875 -0.265625 -0.84375 -0.515625q-0.421875 -0.25 -0.84375 -0.375q-0.421875 -0.125 -0.890625 -0.09375q-0.5 0 -1.25 0.0625q-0.75 0.046875 -1.4375 0.234375q-0.671875 0.171875 -1.0625 0.46875q-0.390625 0.28125 -0.390625 0.75q0 0.515625 0.40625 1.015625q0.40625 0.484375 1.21875 0.984375q0.8125 0.5 1.859375 0.984375q1.0625 0.46875 2.15625 1.0q1.109375 0.515625 2.171875 1.09375q1.078125 0.5625 1.921875 1.265625q0.84375 0.703125 1.328125 1.578125q0.5 0.875 0.34375 2.015625q-0.15625 1.125 -0.953125 1.921875q-0.78125 0.796875 -1.921875 1.21875q-1.140625 0.40625 -2.5 0.53125q-1.359375 0.125 -2.78125 -0.015625q-1.40625 -0.140625 -2.8125 -0.515625q-1.390625 -0.390625 -2.5625 -1.046875q-1.171875 -0.65625 -2.046875 -1.5625q-0.875 -0.921875 -1.1875 -2.171875zm16.73825 0q0 -0.421875 0.125 -0.796875q0.140625 -0.375 0.359375 -0.734375q0.234375 -0.359375 0.609375 -0.609375q0.390625 -0.265625 1.390625 -0.265625q0 2.109375 0.515625 2.96875q0.53125 0.84375 1.484375 1.328125q0.96875 0.46875 2.25 0.625q1.34375 0.1875 2.875 0.265625q0.515625 -0.015625 1.34375 -0.03125q0.84375 -0.015625 1.546875 -0.171875q0.703125 -0.15625 1.09375 -0.4375q0.390625 -0.28125 0.375 -0.796875q0 -0.375 -0.015625 -0.609375q-0.015625 -0.234375 -0.078125 -0.34375q-0.046875 -0.125 -0.21875 -0.28125q-0.15625 -0.15625 -0.484375 -0.328125l-7.828125 -4.265625q-0.46875 -0.28125 -0.921875 -0.6875q-0.453125 -0.40625 -0.765625 -0.890625q-0.296875 -0.5 -0.484375 -1.0625q-0.171875 -0.5625 -0.171875 -1.125q0 -1.203125 0.640625 -1.953125q0.640625 -0.765625 1.53125 -1.171875q0.90625 -0.421875 1.890625 -0.59375q1.0 -0.171875 1.84375 -0.171875q0.390625 0 1.0 0.078125q0.609375 0.0625 1.296875 0.203125q0.6875 0.125 1.375 0.359375q0.703125 0.234375 1.265625 0.625q0.578125 0.375 0.984375 0.90625q0.421875 0.53125 0.421875 1.609375q-0.828125 0.484375 -1.359375 0.375q-0.515625 -0.109375 -0.953125 -0.34375q-0.4375 -0.234375 -0.859375 -0.5q-0.421875 -0.265625 -0.84375 -0.515625q-0.421875 -0.25 -0.84375 -0.375q-0.421875 -0.125 -0.890625 -0.09375q-0.5 0 -1.25 0.0625q-0.75 0.046875 -1.4375 0.234375q-0.671875 0.171875 -1.0625 0.46875q-0.390625 0.28125 -0.390625 0.75q0 0.515625 0.40625 1.015625q0.40625 0.484375 1.21875 0.984375q0.8125 0.5 1.859375 0.984375q1.0625 0.46875 2.15625 1.0q1.109375 0.515625 2.171875 1.09375q1.078125 0.5625 1.921875 1.265625q0.84375 0.703125 1.328125 1.578125q0.5 0.875 0.34375 2.015625q-0.15625 1.125 -0.953125 1.921875q-0.78125 0.796875 -1.921875 1.21875q-1.140625 0.40625 -2.5 0.53125q-1.359375 0.125 -2.78125 -0.015625q-1.40625 -0.140625 -2.8125 -0.515625q-1.390625 -0.390625 -2.5625 -1.046875q-1.171875 -0.65625 -2.046875 -1.5625q-0.875 -0.921875 -1.1875 -2.171875z" fill-rule="nonzero"></path><path fill="#000000" fill-opacity="0.0" d="m31.089134 111.57837l200.6929 0l0 64.62993l-200.6929 0z" fill-rule="nonzero"></path><path fill="#ffffff" d="m52.10476 159.46962q-0.1875 -1.21875 0.265625 0.578125q0.453125 1.78125 0.703125 3.21875q0.265625 1.421875 0.140625 2.390625q-0.203125 1.53125 -1.171875 1.734375q-0.71875 2.25 -1.578125 0.40625q-0.84375 -1.859375 -1.25 -3.171875q-0.390625 -1.3125 -0.828125 -3.109375q-0.421875 -1.796875 -0.84375 -3.796875q-0.40625 -2.0 -0.75 -4.125q-0.328125 -2.125 -0.546875 -4.078125q-0.21875 -1.953125 -0.21875 -3.640625q0 -1.6875 0.40625 -3.203125q1.359375 -0.984375 2.21875 -0.578125q0.875 0.40625 1.265625 1.109375q0.390625 0.703125 0.53125 1.578125q0 0.796875 -0.078125 1.203125q0 -0.015625 0.109375 0.515625q0.125 0.515625 0.265625 1.109375q0.15625 0.59375 0.28125 1.0625q0.125 0.46875 -0.15625 -0.09375q-0.046875 0.015625 1.25 -0.140625q1.296875 -0.171875 2.796875 -0.46875q1.5 -0.3125 3.046875 -0.71875q1.5625 -0.421875 2.734375 -0.953125q1.1875 -0.53125 1.796875 -1.09375q0.609375 -0.5625 0.609375 -1.0625q0 0.078125 -0.046875 -0.0625l0 0.0625q-1.0 -1.15625 -2.265625 -2.015625q-1.265625 -0.875 -2.703125 -1.296875q-1.421875 -0.421875 -3.078125 -0.546875q-1.65625 -0.140625 -3.5625 -0.140625q-1.4375 0 -2.9375 0.03125q-1.5 0.015625 -2.609375 0.34375q-1.109375 0.3125 -1.75 1.0625q-0.640625 0.734375 -0.640625 3.296875q-1.828125 0 -2.375 -0.46875q-0.546875 -0.46875 -0.84375 -1.0q-0.296875 -0.53125 -0.484375 -1.109375q-0.203125 -0.578125 -0.203125 -1.078125q0 -0.890625 0.375 -1.671875q0.375 -0.78125 0.9375 -1.34375q0.578125 -0.578125 1.21875 -1.03125q0.640625 -0.453125 1.421875 -0.84375q1.6875 -0.3125 2.875 -0.5q1.1875 -0.203125 2.265625 -0.328125q1.09375 -0.125 2.1875 -0.140625q1.109375 -0.03125 2.46875 -0.03125q1.421875 0 2.96875 0.234375q1.5625 0.21875 3.171875 0.671875q1.609375 0.453125 3.078125 1.203125q1.46875 0.75 2.65625 1.84375q1.203125 1.078125 1.921875 2.546875q0.71875 1.453125 0.71875 3.265625q0 1.75 -1.046875 3.03125q-1.046875 1.265625 -2.609375 2.109375q-1.5625 0.828125 -3.375 1.375q-1.8125 0.546875 -3.578125 0.96875q-1.765625 0.40625 -3.296875 0.6875q-1.484375 0.375 -1.0625 0.25q1.5 2.078125 3.796875 4.328125q2.3125 2.234375 4.3125 3.78125q2.0 1.53125 3.65625 2.515625q1.65625 0.96875 2.796875 1.703125q1.140625 0.71875 1.53125 1.234375q0.953125 1.25 -0.546875 2.234375q-0.84375 1.0625 -2.4375 0.609375q-1.59375 -0.4375 -3.234375 -1.46875q-1.640625 -1.03125 -3.453125 -2.515625q-1.8125 -1.5 -3.546875 -3.09375q-1.734375 -1.59375 -3.3125 -3.140625q-1.5625 -1.546875 -0.359375 -0.234375zm22.08162 -18.765625q-0.359375 0 1.640625 0.59375q-0.734375 -1.421875 -0.734375 -0.984375l0 8.375q-0.21875 -0.359375 0.609375 -0.375q0.84375 -0.015625 2.375 -0.140625q1.546875 -0.140625 3.296875 -0.453125q1.765625 -0.3125 3.28125 -0.578125q1.53125 -0.265625 2.53125 -0.453125q1.59375 -0.28125 1.765625 -0.109375q-0.3125 0 0.078125 -0.015625q0.40625 -0.03125 0.875 -0.046875q0.46875 -0.03125 0.859375 -0.046875q0.40625 -0.03125 1.59375 -0.03125q0 2.75 -1.59375 3.65625q-1.59375 0.90625 -3.625 1.3125q-2.015625 0.390625 -4.265625 0.609375q-2.25 0.21875 -4.1875 0.375q-1.921875 0.140625 -3.265625 0.328125q-0.703125 0.046875 -0.625 -0.21875q-0.265625 0.6875 -0.375 1.5625q-0.09375 0.875 -0.125 1.828125q-0.015625 0.9375 0 1.90625q0.03125 0.96875 0.03125 1.75q0 0.203125 0 0.6875q0 0.46875 0 0.96875q0 0.5 0 0.953125q0 0.453125 0 0.421875q-0.0625 -0.140625 0.328125 0q0.40625 0.140625 1.0625 0.203125q0.671875 0.0625 1.265625 0.015625q0.796875 -0.046875 1.109375 -0.046875q1.578125 0 3.171875 -0.171875q1.59375 -0.171875 3.203125 -0.328125q1.609375 -0.171875 3.234375 -0.328125q1.640625 -0.171875 3.3125 -0.171875l0.515625 0q0.203125 0.109375 0.390625 0.15625q0.1875 0.03125 0.46875 0.15625q0.28125 0.125 0.453125 0.234375q-0.0625 -0.03125 0.03125 -0.03125q0.390625 0.203125 0.59375 0.34375q0.671875 0.359375 0.671875 1.0625q0 1.484375 -1.328125 2.265625q-1.3125 0.78125 -2.953125 1.171875q-1.640625 0.375 -3.515625 0.5625q-1.875 0.171875 -3.578125 0.25q-1.6875 0.0625 -2.890625 0.0625q-1.203125 0 -1.546875 0q-2.015625 0 -3.65625 -0.375q-1.625 -0.375 -2.828125 -1.328125q-1.1875 -0.953125 -1.734375 -2.578125q-0.546875 -1.59375 -0.546875 -3.765625q0 -1.90625 0.265625 -3.71875q0.265625 -1.8125 0.265625 -3.609375q0 -0.546875 -0.25 -1.0625q-0.234375 -0.53125 -0.234375 -1.375l0 -0.703125q0.328125 -0.3125 0.5625 -0.671875q0.25 -0.359375 0.109375 -0.234375l0 -10.15625q0 -0.984375 0.3125 -1.6875q0.328125 -0.71875 1.28125 -0.9375q0.953125 -0.234375 2.1875 -0.171875q1.25 0.046875 3.28125 0.15625q2.03125 0.09375 4.984375 0.140625q3.046875 0.046875 7.4375 0q0.6875 0.265625 1.234375 0.515625q0.5625 0.25 1.09375 0.6875q0.53125 0.4375 0.875 1.078125q0.359375 0.625 0.359375 1.5q0 0.546875 -0.5625 1.171875q-0.5625 0.609375 -1.296875 0.234375l-2.0625 -0.8125l-15.21875 0.421875zm42.821487 25.125q0 -0.921875 0.15625 -1.8125q0.15625 -0.890625 0.34375 -1.71875q0.1875 -0.84375 0.328125 -1.640625q0.140625 -0.8125 0.140625 -1.578125q0 -1.3125 -0.09375 -2.765625q-0.09375 -1.46875 -0.203125 -1.828125q-0.53125 0.125 -2.03125 0.046875q-1.5 -0.09375 -2.9375 -0.28125q-1.421875 -0.203125 -2.828125 -0.390625q-1.390625 -0.1875 -2.765625 -0.1875q-0.421875 0 -1.34375 0q-0.921875 0 -1.875 0.046875q-0.9375 0.046875 -1.71875 0.140625q-0.4375 0.0625 -0.40625 0.03125l-0.140625 0.125q0 -0.3125 -0.03125 -0.140625q-0.015625 0.15625 -0.015625 0.390625q0 0.21875 -0.03125 0.453125q-0.015625 0.234375 -0.015625 0.328125q0 1.3125 0.203125 2.6875q0.203125 1.359375 0.46875 2.6875q0.265625 1.328125 0.5 2.6875q0.25 1.421875 0.25 2.859375l0 0.90625q-1.5 1.40625 -2.546875 1.03125q-1.046875 -0.390625 -1.625 -1.46875q-0.578125 -1.078125 -0.90625 -2.484375q-0.328125 -1.40625 -0.5 -3.015625q-0.171875 -1.609375 -0.203125 -3.28125q-0.03125 -1.6875 0.078125 -2.796875q0.234375 0.234375 -0.078125 -0.09375q-0.296875 -0.34375 -0.59375 -0.703125q-0.296875 -0.375 -0.625 -0.765625q-0.265625 -0.421875 -0.375 -0.65625l-0.15625 -0.3125l0 -0.34375q0 -0.8125 0.421875 -1.15625q0.4375 -0.359375 0.75 -0.453125q0.3125 -0.109375 0.375 -0.140625q0.078125 -0.03125 -0.109375 0.28125q0 0.234375 0 0.046875q0 -0.203125 0 -0.40625q0 -0.21875 0 -0.40625q0 -0.15625 0 -0.296875q0.1875 -2.03125 0.3125 -4.3125q0.125 -2.28125 0.4375 -4.53125q0.328125 -2.25 1.0 -4.375q0.6875 -2.125 1.953125 -3.8125q1.28125 -1.703125 3.265625 -2.71875q1.984375 -1.03125 4.90625 -1.03125q2.390625 0 4.28125 1.125q1.90625 1.125 3.328125 2.953125q1.421875 1.8125 2.421875 4.140625q1.015625 2.3125 1.703125 4.875q0.6875 2.546875 1.140625 5.125q0.46875 2.5625 0.71875 4.890625q0.25 2.328125 0.34375 4.265625q0.09375 1.9375 0.09375 3.21875q0 0.90625 0 1.65625q0 0.734375 -0.078125 1.453125q-0.0625 0.71875 -0.140625 1.515625q-0.078125 0.78125 -0.3125 2.0625q-0.609375 0.828125 -1.40625 1.4375q-0.78125 0.59375 -1.84375 0.59375q-1.234375 0 -1.609375 -0.6875q-0.375 -0.6875 -0.375 -1.46875zm-0.09375 -15.515625q0.0625 0 0 0.015625q-0.046875 0 -0.078125 0.046875q-0.03125 0.046875 0.078125 -0.3125q0.109375 -0.375 0.203125 -1.09375q0 -1.25 -0.265625 -2.984375q-0.25 -1.734375 -0.765625 -3.578125q-0.5 -1.84375 -1.296875 -3.5625q-0.78125 -1.734375 -1.84375 -3.03125q-1.046875 -1.3125 -2.359375 -2.0625q-1.296875 -0.75 -2.890625 -0.75q-1.625 0 -2.734375 0.859375q-1.09375 0.859375 -1.859375 2.34375q-0.75 1.484375 -1.203125 3.453125q-0.4375 1.96875 -0.625 3.96875q-0.171875 2.0 -0.203125 3.796875q-0.015625 1.796875 -0.015625 1.984375l15.859375 0.90625zm17.278313 13.640625q0 -0.515625 0.234375 -1.359375q0.25 -0.84375 1.5 -0.84375q0.359375 0 1.40625 0.28125q1.046875 0.265625 2.1875 0.609375q1.15625 0.328125 2.21875 0.609375q1.0625 0.28125 1.359375 0.3125l0.1875 0q1.921875 0 3.90625 -0.71875q2.0 -0.734375 3.625 -2.0625q1.640625 -1.328125 2.640625 -3.015625q1.015625 -1.703125 1.015625 -3.625q0 -1.515625 -0.609375 -3.015625q-0.609375 -1.5 -1.671875 -2.9375q-1.046875 -1.4375 -2.484375 -2.65625q-1.421875 -1.234375 -3.03125 -2.21875q-1.609375 -0.984375 -3.25 -1.671875q-1.625 -0.6875 -1.875 -0.71875q0.03125 1.734375 0.46875 4.4375q0.453125 2.6875 0.90625 5.21875q0.453125 2.515625 0.703125 4.9375q0.296875 2.5 0 4.953125q0 0.234375 0 0.640625q0 0.40625 -0.203125 0.9375q-0.203125 0.53125 -0.734375 0.921875q-0.515625 0.375 -0.96875 0.375q-1.359375 0.703125 -2.03125 -0.453125q-0.671875 -1.171875 -0.890625 -2.671875q-0.21875 -1.5 -0.265625 -3.375q-0.046875 -1.890625 -0.171875 -3.90625q-0.109375 -2.015625 -0.296875 -3.921875q-0.1875 -1.921875 -0.609375 -3.515625q-0.09375 -0.625 -0.25 -1.5q-0.140625 -0.890625 -0.359375 -1.828125q-0.21875 -0.9375 -0.5 -1.65625q-0.265625 -0.71875 -0.171875 -0.625q-2.9375 0 -4.9375 0.21875q-1.984375 0.203125 -3.109375 0.484375q-1.1249924 0.265625 -1.6249924 0.546875q-0.5 0.265625 -0.96875 0.484375l-0.078125 0.03125q-0.3125 0.15625 -0.59375 0.15625q-1.109375 0 -1.109375 -0.640625q0.546875 0.546875 0.5 0.546875q-0.515625 -0.515625 -0.59375 -0.765625q-0.078125 -0.265625 -0.171875 -0.484375q-0.078125 -0.21875 -0.171875 -0.546875q-0.09375 -0.328125 -0.09375 -0.5625l0 -0.1875q0 -1.203125 0.96875 -1.875q0.984375 -0.671875 2.109375 -1.03125q1.140625 -0.375 2.4374924 -0.59375q1.3125 -0.234375 2.40625 -0.328125q1.09375 -0.109375 1.859375 -0.171875q0.765625 -0.078125 0.859375 -0.078125q2.53125 0 5.390625 0.578125q2.875 0.5625 5.65625 1.65625q2.796875 1.078125 5.359375 2.6875q2.578125 1.609375 4.5625 3.734375q2.0 2.109375 3.203125 4.78125q1.203125 2.671875 1.203125 5.75q0 2.828125 -0.890625 5.109375q-0.875 2.28125 -2.4375 4.0q-1.546875 1.71875 -3.59375 2.875q-2.046875 1.140625 -4.328125 1.671875q-2.28125 0.53125 -4.6875 0.53125q-2.390625 0 -4.703125 -0.578125q-0.5 -0.15625 -1.171875 -0.4375q-0.671875 -0.296875 -1.375 -0.6875q-0.703125 -0.40625 -1.28125 -1.109375q-0.578125 -0.71875 -0.578125 -1.703125zm30.17192 -23.25q-0.359375 0 1.640625 0.59375q-0.734375 -1.421875 -0.734375 -0.984375l0 8.375q-0.21875 -0.359375 0.609375 -0.375q0.84375 -0.015625 2.375 -0.140625q1.546875 -0.140625 3.296875 -0.453125q1.765625 -0.3125 3.28125 -0.578125q1.53125 -0.265625 2.53125 -0.453125q1.59375 -0.28125 1.765625 -0.109375q-0.3125 0 0.078125 -0.015625q0.40625 -0.03125 0.875 -0.046875q0.46875 -0.03125 0.859375 -0.046875q0.40625 -0.03125 1.59375 -0.03125q0 2.75 -1.59375 3.65625q-1.59375 0.90625 -3.625 1.3125q-2.015625 0.390625 -4.265625 0.609375q-2.25 0.21875 -4.1875 0.375q-1.921875 0.140625 -3.265625 0.328125q-0.703125 0.046875 -0.625 -0.21875q-0.265625 0.6875 -0.375 1.5625q-0.09375 0.875 -0.125 1.828125q-0.015625 0.9375 0 1.90625q0.03125 0.96875 0.03125 1.75q0 0.203125 0 0.6875q0 0.46875 0 0.96875q0 0.5 0 0.953125q0 0.453125 0 0.421875q-0.0625 -0.140625 0.328125 0q0.40625 0.140625 1.0625 0.203125q0.671875 0.0625 1.265625 0.015625q0.796875 -0.046875 1.109375 -0.046875q1.578125 0 3.171875 -0.171875q1.59375 -0.171875 3.203125 -0.328125q1.609375 -0.171875 3.234375 -0.328125q1.640625 -0.171875 3.3125 -0.171875l0.515625 0q0.203125 0.109375 0.390625 0.15625q0.1875 0.03125 0.46875 0.15625q0.28125 0.125 0.453125 0.234375q-0.0625 -0.03125 0.03125 -0.03125q0.390625 0.203125 0.59375 0.34375q0.671875 0.359375 0.671875 1.0625q0 1.484375 -1.328125 2.265625q-1.3125 0.78125 -2.953125 1.171875q-1.640625 0.375 -3.515625 0.5625q-1.875 0.171875 -3.578125 0.25q-1.6875 0.0625 -2.890625 0.0625q-1.203125 0 -1.546875 0q-2.015625 0 -3.65625 -0.375q-1.625 -0.375 -2.828125 -1.328125q-1.1875 -0.953125 -1.734375 -2.578125q-0.546875 -1.59375 -0.546875 -3.765625q0 -1.90625 0.265625 -3.71875q0.265625 -1.8125 0.265625 -3.609375q0 -0.546875 -0.25 -1.0625q-0.234375 -0.53125 -0.234375 -1.375l0 -0.703125q0.328125 -0.3125 0.5625 -0.671875q0.25 -0.359375 0.109375 -0.234375l0 -10.15625q0 -0.984375 0.3125 -1.6875q0.328125 -0.71875 1.28125 -0.9375q0.953125 -0.234375 2.1875 -0.171875q1.25 0.046875 3.28125 0.15625q2.03125 0.09375 4.984375 0.140625q3.046875 0.046875 7.4375 0q0.6875 0.265625 1.234375 0.515625q0.5625 0.25 1.09375 0.6875q0.53125 0.4375 0.875 1.078125q0.359375 0.625 0.359375 1.5q0 0.546875 -0.5625 1.171875q-0.5625 0.609375 -1.296875 0.234375l-2.0625 -0.8125l-15.21875 0.421875zm32.352737 18.765625q-0.1875 -1.21875 0.265625 0.578125q0.453125 1.78125 0.703125 3.21875q0.265625 1.421875 0.140625 2.390625q-0.203125 1.53125 -1.171875 1.734375q-0.71875 2.25 -1.578125 0.40625q-0.84375 -1.859375 -1.25 -3.171875q-0.390625 -1.3125 -0.828125 -3.109375q-0.421875 -1.796875 -0.84375 -3.796875q-0.40625 -2.0 -0.75 -4.125q-0.328125 -2.125 -0.546875 -4.078125q-0.21875 -1.953125 -0.21875 -3.640625q0 -1.6875 0.40625 -3.203125q1.359375 -0.984375 2.21875 -0.578125q0.875 0.40625 1.265625 1.109375q0.390625 0.703125 0.53125 1.578125q0 0.796875 -0.078125 1.203125q0 -0.015625 0.109375 0.515625q0.125 0.515625 0.265625 1.109375q0.15625 0.59375 0.28125 1.0625q0.125 0.46875 -0.15625 -0.09375q-0.046875 0.015625 1.25 -0.140625q1.296875 -0.171875 2.796875 -0.46875q1.5 -0.3125 3.046875 -0.71875q1.5625 -0.421875 2.734375 -0.953125q1.1875 -0.53125 1.796875 -1.09375q0.609375 -0.5625 0.609375 -1.0625q0 0.078125 -0.046875 -0.0625l0 0.0625q-1.0 -1.15625 -2.265625 -2.015625q-1.265625 -0.875 -2.703125 -1.296875q-1.421875 -0.421875 -3.078125 -0.546875q-1.65625 -0.140625 -3.5625 -0.140625q-1.4375 0 -2.9375 0.03125q-1.5 0.015625 -2.609375 0.34375q-1.109375 0.3125 -1.75 1.0625q-0.640625 0.734375 -0.640625 3.296875q-1.828125 0 -2.375 -0.46875q-0.546875 -0.46875 -0.84375 -1.0q-0.296875 -0.53125 -0.484375 -1.109375q-0.203125 -0.578125 -0.203125 -1.078125q0 -0.890625 0.375 -1.671875q0.375 -0.78125 0.9375 -1.34375q0.578125 -0.578125 1.21875 -1.03125q0.640625 -0.453125 1.421875 -0.84375q1.6875 -0.3125 2.875 -0.5q1.1875 -0.203125 2.265625 -0.328125q1.09375 -0.125 2.1875 -0.140625q1.109375 -0.03125 2.46875 -0.03125q1.421875 0 2.96875 0.234375q1.5625 0.21875 3.171875 0.671875q1.609375 0.453125 3.078125 1.203125q1.46875 0.75 2.65625 1.84375q1.203125 1.078125 1.921875 2.546875q0.71875 1.453125 0.71875 3.265625q0 1.75 -1.046875 3.03125q-1.046875 1.265625 -2.609375 2.109375q-1.5625 0.828125 -3.375 1.375q-1.8125 0.546875 -3.578125 0.96875q-1.765625 0.40625 -3.296875 0.6875q-1.484375 0.375 -1.0625 0.25q1.5 2.078125 3.796875 4.328125q2.3125 2.234375 4.3125 3.78125q2.0 1.53125 3.65625 2.515625q1.65625 0.96875 2.796875 1.703125q1.140625 0.71875 1.53125 1.234375q0.953125 1.25 -0.546875 2.234375q-0.84375 1.0625 -2.4375 0.609375q-1.59375 -0.4375 -3.234375 -1.46875q-1.640625 -1.03125 -3.453125 -2.515625q-1.8125 -1.5 -3.546875 -3.09375q-1.734375 -1.59375 -3.3125 -3.140625q-1.5625 -1.546875 -0.359375 -0.234375z" fill-rule="nonzero"></path></g></svg>

